<svg width="534" height="622" viewBox="0 0 534 622" fill="none" xmlns="http://www.w3.org/2000/svg">
<path d="M491.624 290.062C507.984 299.227 507.984 322.773 491.624 331.938L34.4796 588.031C18.4817 596.993 -1.25 585.43 -1.25 567.093L-1.25 54.9074C-1.25 36.5702 18.4817 25.007 34.4797 33.9691L491.624 290.062Z" fill="url(#paint0_linear_196_40)" fill-opacity="0.6"/>
<path d="M498.955 345.025C525.54 330.132 525.54 291.869 498.955 276.975L41.8107 20.8826C15.814 6.31923 -16.25 25.1094 -16.25 54.9074L-16.25 567.093C-16.25 596.891 15.814 615.681 41.8107 601.117L498.955 345.025Z" stroke="url(#paint1_linear_196_40)" stroke-opacity="0.2" stroke-width="30"/>
<defs>
<linearGradient id="paint0_linear_196_40" x1="465.063" y1="320.36" x2="-177.958" y2="308.69" gradientUnits="userSpaceOnUse">
<stop stop-color="#211C1C" stop-opacity="0.53"/>
<stop offset="0.85814" stop-color="#211C1C" stop-opacity="0"/>
</linearGradient>
<linearGradient id="paint1_linear_196_40" x1="529" y1="311" x2="-178" y2="311" gradientUnits="userSpaceOnUse">
<stop stop-opacity="0.5"/>
<stop offset="1" stop-opacity="0"/>
</linearGradient>
</defs>
</svg>
